<?xml version="1.0" encoding="iso-8859-1"?>
<!-- Generator: Adobe Illustrator 19.0.0, SVG Export Plug-In . SVG Version: 6.00 Build 0)  -->
<svg version="1.1" id="Capa_1" xmlns="http://www.w3.org/2000/svg" xmlns:xlink="http://www.w3.org/1999/xlink" x="0px" y="0px"
	 viewBox="0 0 512 512" style="enable-background:new 0 0 512 512;" xml:space="preserve">
<circle style="fill:#A5E9FF;" cx="256" cy="256" r="256"/>
<path style="fill:#87DAFF;" d="M256,0v512c141.385,0,256-114.615,256-256S397.385,0,256,0z"/>
<path style="fill:#00AAF0;" d="M481.49,241h-90.221c-1.813-61.049-14.658-118.144-36.646-162.121
	c-6.749-13.499-14.18-25.37-22.159-35.553C415.073,73.117,475.48,149.745,481.49,241z"/>
<g>
	<path style="fill:#00C3FF;" d="M241,32.524V241h-90.257c1.769-56.408,13.49-108.75,33.467-148.705
		C200.17,60.375,220.272,39.441,241,32.524z"/>
	<path style="fill:#00C3FF;" d="M241,271v208.476c-20.728-6.917-40.83-27.851-56.79-59.771
		C164.232,379.75,152.512,327.408,150.743,271H241z"/>
</g>
<g>
	<path style="fill:#00AAF0;" d="M271,479.476V271h90.257c-1.769,56.408-13.49,108.75-33.467,148.705
		C311.83,451.625,291.728,472.559,271,479.476z"/>
	<path style="fill:#00AAF0;" d="M271,241V32.524c20.728,6.917,40.83,27.851,56.79,59.771
		c19.978,39.955,31.698,92.296,33.467,148.705H271z"/>
</g>
<g>
	<path style="fill:#00C3FF;" d="M179.536,43.326c-7.98,10.183-15.41,22.055-22.159,35.553
		C135.389,122.856,122.544,179.951,120.731,241H30.51C36.52,149.745,96.927,73.117,179.536,43.326z"/>
	<path style="fill:#00C3FF;" d="M30.51,271h90.221c1.813,61.049,14.658,118.145,36.646,162.121
		c6.749,13.499,14.18,25.37,22.159,35.553C96.927,438.883,36.52,362.255,30.51,271z"/>
</g>
<path style="fill:#00AAF0;" d="M332.464,468.674c7.98-10.183,15.41-22.055,22.159-35.553
	c21.988-43.977,34.833-101.072,36.646-162.121h90.221C475.48,362.255,415.073,438.883,332.464,468.674z"/>
<path style="fill:#F2F2F4;" d="M437.034,512l-55.352-36.597c-12.638-8.355-20.183-22.388-20.183-37.537V328.995H512V437.94
	c0,15.081-7.491,29.078-20.039,37.443L437.034,512z"/>
<path style="fill:#DFDFE1;" d="M436.75,328.995v182.817l0.284,0.188l54.927-36.618C504.509,467.018,512,453.021,512,437.94V328.995
	H436.75z"/>
<path style="fill:#00C3FF;" d="M391.5,358.995v78.871c0,5.05,2.515,9.727,6.728,12.512l38.738,25.612l38.354-25.57
	c4.183-2.788,6.68-7.453,6.68-12.48v-78.945L391.5,358.995L391.5,358.995z"/>
<path style="fill:#00AAF0;" d="M436.75,358.995v116.853l0.216,0.143l38.354-25.57c4.183-2.788,6.68-7.453,6.68-12.48v-78.945
	L436.75,358.995L436.75,358.995z"/>
<g>
</g>
<g>
</g>
<g>
</g>
<g>
</g>
<g>
</g>
<g>
</g>
<g>
</g>
<g>
</g>
<g>
</g>
<g>
</g>
<g>
</g>
<g>
</g>
<g>
</g>
<g>
</g>
<g>
</g>
</svg>
